<svg id="Layer_1" enable-background="new 0 0 512.002 512.002" height="512" viewBox="0 0 512.002 512.002" width="512" xmlns="http://www.w3.org/2000/svg"><g><g clip-rule="evenodd" fill-rule="evenodd"><path d="m205.999 60h100.003 144.998c13.75 0 25-11.25 25-25s-11.25-25-25-25h-390c-13.75 0-25 11.25-25 25s11.25 25 25 25z" fill="#ffc144"/><path d="m205.999 163.16v-103.16h-144.998v442.002l144.998-63.944v-125.211c-24.119-16.146-39.998-43.64-39.998-74.843s15.88-58.698 39.998-74.844z" fill="#ff5a58"/><path d="m205.999 60v103.16c14.301-9.574 31.5-15.157 50.002-15.157s35.7 5.583 50.002 15.157v-103.16z" fill="#fff"/><path d="m256.001 148.004c-18.502 0-35.7 5.583-50.002 15.157-24.119 16.145-39.998 43.64-39.998 74.843s15.88 58.698 39.998 74.843c14.301 9.573 31.5 15.157 50.002 15.157s35.7-5.583 50.002-15.157c24.119-16.146 39.998-43.64 39.998-74.843s-15.88-58.698-39.998-74.843c-14.301-9.574-31.5-15.157-50.002-15.157zm-7.795 41.947c2.294-4.3 7.639-5.926 11.938-3.633 1.582.844 2.801 2.1 3.598 3.565l11.904 21.898 24.068 4.264c4.816.84 8.039 5.427 7.198 10.243-.344 1.972-1.317 3.677-2.677 4.945l-16.792 17.712 3.384 24.219c.669 4.835-2.708 9.297-7.544 9.966-1.777.246-3.511-.042-5.018-.761l-22.516-10.726-21.965 10.691c-4.396 2.14-9.695.312-11.835-4.083-.889-1.826-1.092-3.809-.712-5.656l3.161-24.098-16.976-17.607c-3.382-3.516-3.274-9.109.242-12.492 1.37-1.318 3.056-2.106 4.803-2.369l24.245-4.505z" fill="#c7d9da"/><path d="m248.206 189.951-11.492 21.572-24.245 4.505c-1.747.263-3.433 1.051-4.803 2.369-3.516 3.383-3.625 8.976-.242 12.492l16.976 17.607-3.161 24.098c-.38 1.847-.177 3.83.712 5.656 2.14 4.395 7.439 6.224 11.835 4.083l21.965-10.691 22.516 10.726c1.507.719 3.24 1.007 5.018.761 4.835-.669 8.212-5.131 7.544-9.966l-3.384-24.219 16.792-17.712c1.359-1.268 2.332-2.973 2.677-4.945.841-4.816-2.382-9.402-7.198-10.243l-24.068-4.264-11.904-21.898c-.797-1.465-2.017-2.721-3.598-3.565-4.302-2.292-9.647-.666-11.94 3.634z" fill="#ffc144"/><path d="m306.003 312.847c-14.301 9.573-31.5 15.157-50.002 15.157s-35.7-5.583-50.002-15.157v125.211l50.002-22.051 50.002 22.051z" fill="#fff"/><path d="m306.003 312.847v125.211l144.998 63.945v-442.003h-144.998v103.16c24.119 16.145 39.998 43.64 39.998 74.843s-15.88 58.698-39.998 74.844z" fill="#ff5a58"/></g><g><path d="m486.001 35c0-19.299-15.701-35-35-35h-390c-19.299 0-35 15.701-35 35 0 15.824 10.56 29.223 25 33.537v167.468c0 5.522 4.478 10 10 10s10-4.478 10-10v-166.005h124.998v88.055c-24.272 18.262-39.998 47.302-39.998 79.948s15.726 61.686 39.998 79.948v113.588l-124.998 55.124v-160.658c0-5.522-4.478-10-10-10s-10 4.478-10 10v175.997c0 3.38 1.707 6.531 4.539 8.377 2.831 1.846 6.403 2.137 9.496.772l190.965-84.215 190.965 84.215c1.291.569 2.665.851 4.034.851 1.911 0 3.813-.548 5.462-1.623 2.832-1.846 4.539-4.997 4.539-8.377v-433.465c14.44-4.314 25-17.713 25-33.537zm-270.002 35h80.004v76.362c-12.257-5.371-25.786-8.359-40.002-8.359s-27.745 2.988-40.002 8.359zm-39.998 168.003c0-44.112 35.888-80 80-80s80 35.888 80 80-35.888 80-80 80-80-35.888-80-80zm75.965 168.854-35.967 15.861v-93.075c12.257 5.371 25.786 8.359 40.002 8.359s27.745-2.988 40.002-8.359v93.075l-35.967-15.861c-2.57-1.134-5.5-1.134-8.07 0zm64.037 24.682v-113.588c24.272-18.262 39.998-47.302 39.998-79.948s-15.726-61.686-39.998-79.948v-88.055h124.998v416.663zm134.998-381.539h-390c-8.271 0-15-6.729-15-15s6.729-15 15-15h390c8.271 0 15 6.729 15 15s-6.729 15-15 15z"/><path d="m213.858 251.971-2.496 19.031c-.713 3.925-.15 8.036 1.599 11.627 2.204 4.526 6.04 7.925 10.801 9.567 2.016.694 4.094 1.04 6.164 1.04 2.821 0 5.627-.641 8.237-1.912l17.635-8.584 18.163 8.653c3.319 1.583 7.021 2.154 10.693 1.641 10.288-1.423 17.501-10.951 16.077-21.255l-2.718-19.449 13.307-14.035c2.875-2.784 4.754-6.335 5.442-10.288 1.788-10.24-5.088-20.026-15.304-21.81l-19.327-3.423-9.604-17.668c-.001-.001-.001-.001-.002-.002-1.762-3.238-4.415-5.869-7.676-7.609-9.158-4.885-20.583-1.408-25.472 7.755l-9.227 17.321-19.369 3.601c-3.799.61-7.27 2.344-10.05 5.019-3.626 3.488-5.677 8.179-5.774 13.209s1.771 9.797 5.266 13.432zm24.683-30.616c2.992-.557 5.568-2.444 6.999-5.131l10.463-19.642 10.857 19.975c1.454 2.674 4.046 4.54 7.042 5.07l21.971 3.892-15.687 16.545c-2.094 2.208-3.068 5.25-2.646 8.264l3.086 22.087-20.574-9.802c-1.36-.647-2.831-.972-4.301-.972-1.498 0-2.995.336-4.377 1.009l-20.023 9.746 2.964-22.601c.396-3.017-.604-6.05-2.716-8.241l-15.462-16.035z"/><path d="m61.001 291.009c5.522 0 10-4.478 10-10v-.008c0-5.522-4.478-9.996-10-9.996s-10 4.481-10 10.004 4.478 10 10 10z"/></g></g></svg>